<svg id="visual" viewBox="0 0 900 600" width="900" height="600" xmlns="http://www.w3.org/2000/svg" xmlns:xlink="http://www.w3.org/1999/xlink" version="1.1"><rect x="0" y="0" width="900" height="600" fill="#001122"></rect><path d="M0 364L21.5 375C43 386 86 408 128.8 422.2C171.7 436.3 214.3 442.7 257.2 431.2C300 419.7 343 390.3 385.8 382.5C428.7 374.7 471.3 388.3 514.2 398.2C557 408 600 414 642.8 415.2C685.7 416.3 728.3 412.7 771.2 406.5C814 400.3 857 391.7 878.5 387.3L900 383L900 601L878.5 601C857 601 814 601 771.2 601C728.3 601 685.7 601 642.8 601C600 601 557 601 514.2 601C471.3 601 428.7 601 385.8 601C343 601 300 601 257.2 601C214.3 601 171.7 601 128.8 601C86 601 43 601 21.5 601L0 601Z" fill="#ff6f61"></path><path d="M0 414L21.5 412.2C43 410.3 86 406.7 128.8 412.7C171.7 418.7 214.3 434.3 257.2 438.3C300 442.3 343 434.7 385.8 425.7C428.7 416.7 471.3 406.3 514.2 414.8C557 423.3 600 450.7 642.8 460.7C685.7 470.7 728.3 463.3 771.2 457.7C814 452 857 448 878.5 446L900 444L900 601L878.5 601C857 601 814 601 771.2 601C728.3 601 685.7 601 642.8 601C600 601 557 601 514.2 601C471.3 601 428.7 601 385.8 601C343 601 300 601 257.2 601C214.3 601 171.7 601 128.8 601C86 601 43 601 21.5 601L0 601Z" fill="#ff517f"></path><path d="M0 507L21.5 498C43 489 86 471 128.8 462C171.7 453 214.3 453 257.2 454.5C300 456 343 459 385.8 457.7C428.7 456.3 471.3 450.7 514.2 458.7C557 466.7 600 488.3 642.8 488.2C685.7 488 728.3 466 771.2 463.2C814 460.3 857 476.7 878.5 484.8L900 493L900 601L878.5 601C857 601 814 601 771.2 601C728.3 601 685.7 601 642.8 601C600 601 557 601 514.2 601C471.3 601 428.7 601 385.8 601C343 601 300 601 257.2 601C214.3 601 171.7 601 128.8 601C86 601 43 601 21.5 601L0 601Z" fill="#ef40a6"></path><path d="M0 535L21.5 535.5C43 536 86 537 128.8 528.8C171.7 520.7 214.3 503.3 257.2 495.8C300 488.3 343 490.7 385.8 492C428.7 493.3 471.3 493.7 514.2 493.5C557 493.3 600 492.7 642.8 497.8C685.7 503 728.3 514 771.2 516.2C814 518.3 857 511.7 878.5 508.3L900 505L900 601L878.5 601C857 601 814 601 771.2 601C728.3 601 685.7 601 642.8 601C600 601 557 601 514.2 601C471.3 601 428.7 601 385.8 601C343 601 300 601 257.2 601C214.3 601 171.7 601 128.8 601C86 601 43 601 21.5 601L0 601Z" fill="#c548cf"></path><path d="M0 565L21.5 559.5C43 554 86 543 128.8 538.3C171.7 533.7 214.3 535.3 257.2 541C300 546.7 343 556.3 385.8 557.2C428.7 558 471.3 550 514.2 545.8C557 541.7 600 541.3 642.8 545.5C685.7 549.7 728.3 558.3 771.2 563C814 567.7 857 568.3 878.5 568.7L900 569L900 601L878.5 601C857 601 814 601 771.2 601C728.3 601 685.7 601 642.8 601C600 601 557 601 514.2 601C471.3 601 428.7 601 385.8 601C343 601 300 601 257.2 601C214.3 601 171.7 601 128.8 601C86 601 43 601 21.5 601L0 601Z" fill="#715df2"></path></svg>