<svg id="visual" viewBox="0 0 900 600" width="900" height="600" xmlns="http://www.w3.org/2000/svg" xmlns:xlink="http://www.w3.org/1999/xlink" version="1.1"><rect x="0" y="0" width="900" height="600" fill="#ffffff"></rect><path d="M0 510L21.5 501.2C43 492.3 86 474.7 128.8 456.7C171.7 438.7 214.3 420.3 257.2 429.5C300 438.7 343 475.3 385.8 475C428.7 474.7 471.3 437.3 514.2 427.5C557 417.7 600 435.3 642.8 434.8C685.7 434.3 728.3 415.7 771.2 417.7C814 419.7 857 442.3 878.5 453.7L900 465L900 601L878.5 601C857 601 814 601 771.2 601C728.3 601 685.7 601 642.8 601C600 601 557 601 514.2 601C471.3 601 428.7 601 385.8 601C343 601 300 601 257.2 601C214.3 601 171.7 601 128.8 601C86 601 43 601 21.5 601L0 601Z" fill="#6600FF" stroke-linecap="round" stroke-linejoin="miter"></path></svg>